<?xml version="1.0" encoding="UTF-8"?>
<svg width="222px" height="212px" viewBox="0 0 222 212" version="1.1" xmlns="http://www.w3.org/2000/svg" xmlns:xlink="http://www.w3.org/1999/xlink">
    <title>karavel_logo</title>
    <g id="karavel_logo" stroke="none" stroke-width="1" fill="none" fill-rule="evenodd">
        <path d="M7.59892864,158 L7.59892864,193.278144 L21.9130627,182.024433 L26.5253342,186.177423 L16.1279487,194.491753 L27.75,212 L18.9291331,212 L10.8283369,198.728247 L7.59892864,201.308557 L7.59892864,212 L0,212 L0,158 L7.59892864,158 Z M191.592826,181.072278 C195.58398,181.072278 198.875369,182.222324 201.466991,184.522415 C203.959965,186.734675 205.657854,189.825026 206.560659,193.788565 L206.6613,194.249771 L184.340708,201.718207 C185.068133,202.7914 185.942148,203.694419 187.054029,204.32022 C188.384414,205.072278 189.89458,205.445563 191.592826,205.445563 C192.784917,205.445563 193.932754,205.242452 195.033572,204.833486 C195.996787,204.473239 196.907061,204.010021 197.764396,203.443833 L198.128583,203.194876 L201.638476,208.860018 C200.122777,209.815188 198.460488,210.578225 196.648841,211.146386 C194.837195,211.717292 193.083632,212 191.388152,212 C188.03868,212 185.137279,211.341263 182.68395,210.021043 C180.230621,208.700823 178.360892,206.881061 177.077527,204.559012 C175.794162,202.236962 175.149713,199.57731 175.149713,196.571821 C175.149713,193.659652 175.885436,191.041171 177.354114,188.721866 C178.820026,186.399817 180.803157,184.544373 183.303506,183.155535 C185.801089,181.766697 188.566962,181.072278 191.592826,181.072278 Z M47.2618484,181.074199 C50.0609115,181.074199 52.3068001,181.620403 54.0050458,182.712809 C55.4628912,183.651281 56.6441685,184.75581 57.5893559,185.998911 L57.8413112,186.341354 L58.4083151,182.369716 L65.5608617,182.369716 L65.5608617,211.249863 L57.7887596,211.249863 L57.7887596,207.022964 C57.6836564,207.146478 57.6006803,207.248033 57.4789819,207.393504 C56.9507002,208.005581 56.1928511,208.678042 55.2082004,209.405398 C54.2207839,210.135499 53.0757126,210.747575 51.7674549,211.249863 C50.461963,211.749405 48.9600942,211.999177 47.2618484,211.999177 C44.5098051,211.999177 42.0205198,211.431016 39.7995241,210.291949 C37.5729966,209.155627 35.8194334,207.459378 34.5360685,205.208692 C33.2499377,202.952516 32.6082553,200.16935 32.6082553,196.845471 C32.6082553,193.565508 33.285894,190.75764 34.6384058,188.413632 C35.9909175,186.069625 37.7804371,184.260842 40.0041986,182.987283 C42.2279602,181.710979 44.6480988,181.074199 47.2618484,181.074199 Z M114.405896,181.074199 C117.204959,181.074199 119.450847,181.620403 121.149093,182.712809 C122.606938,183.651281 123.788216,184.75581 124.733403,185.998911 L124.985358,186.341354 L125.552362,182.369716 L132.704909,182.369716 L132.704909,211.249863 L124.932807,211.249863 L124.932807,207.022964 C124.827704,207.146478 124.744727,207.248033 124.623029,207.393504 C124.094747,208.005581 123.336898,208.678042 122.352248,209.405398 C121.364831,210.135499 120.21976,210.747575 118.911502,211.249863 C117.60601,211.749405 116.104141,211.999177 114.405896,211.999177 C111.653852,211.999177 109.164567,211.431016 106.943571,210.291949 C104.717044,209.155627 102.963481,207.459378 101.680116,205.208692 C100.393985,202.952516 99.7523024,200.16935 99.7523024,196.845471 C99.7523024,193.565508 100.429941,190.75764 101.782453,188.413632 C103.134965,186.069625 104.924484,184.260842 107.148246,182.987283 C109.372007,181.710979 111.792146,181.074199 114.405896,181.074199 Z M148.182179,182.370814 L156.181082,198.866697 L163.388946,182.370814 L172.054425,182.370814 L156.09534,211.931656 L155.749606,211.931656 L139.032672,182.370814 L148.182179,182.370814 Z M222,158.002745 L222,211.250686 L214.294279,211.250686 L214.294279,158.002745 L222,158.002745 Z M95.1435289,181.073376 L94.662267,188.72022 C92.5048864,188.539067 90.6130295,188.92333 88.9866964,189.881244 C87.3575974,190.839158 86.0963595,192.120952 85.2029827,193.737603 C84.3708501,195.238779 83.9274497,196.806221 83.8683524,198.446522 L83.8615344,198.826349 L83.8615344,211.249039 L76.2249601,211.249039 L76.2249601,182.371638 L83.0345385,182.371638 L83.6706892,189.255444 C84.4036455,187.594876 85.4657406,186.156633 86.8873991,184.965416 C88.3533116,183.738518 89.8441169,182.780604 91.3598151,182.097164 C92.8727474,181.416468 94.1339853,181.073376 95.1435289,181.073376 Z M49.1205148,187.356908 C47.5135428,187.356908 46.0448644,187.741171 44.7172456,188.517932 C43.3868609,189.289204 42.3330634,190.359652 41.5530873,191.726532 C40.7731112,193.090668 40.3831232,194.660659 40.3831232,196.43376 C40.3831232,198.165691 40.7952382,199.735682 41.6222341,201.143733 C42.4464642,202.557274 43.536218,203.671638 44.8887297,204.48957 C46.2412414,205.310247 47.7431102,205.719213 49.3943362,205.719213 C50.7689749,205.719213 52.0329787,205.480421 53.1780499,205.002836 C54.3258871,204.525252 55.2884107,203.819854 56.0683868,202.886642 C56.7703653,202.046752 57.304317,201.069021 57.6722583,199.953449 L57.7887596,199.576487 L57.7887596,193.293779 C57.4208985,192.110796 56.8124066,191.076029 55.9632837,190.189478 C55.1169266,189.300183 54.1073831,188.608509 52.937419,188.106221 C51.7674549,187.606679 50.4951535,187.356908 49.1205148,187.356908 Z M116.264562,187.356908 C114.65759,187.356908 113.188912,187.741171 111.861293,188.517932 C110.530908,189.289204 109.477111,190.359652 108.697134,191.726532 C107.917158,193.090668 107.52717,194.660659 107.52717,196.43376 C107.52717,198.165691 107.939285,199.735682 108.766281,201.143733 C109.590511,202.557274 110.680265,203.671638 112.032777,204.48957 C113.385289,205.310247 114.887157,205.719213 116.538383,205.719213 C117.913022,205.719213 119.177026,205.480421 120.322097,205.002836 C121.469934,204.525252 122.432458,203.819854 123.212434,202.886642 C123.914412,202.046752 124.448364,201.069021 124.816305,199.953449 L124.932807,199.576487 L124.932807,193.293779 C124.564946,192.110796 123.956454,191.076029 123.107331,190.189478 C122.260974,189.300183 121.25143,188.608509 120.081466,188.106221 C118.911502,187.606679 117.639201,187.356908 116.264562,187.356908 Z M190.976037,187.083257 C189.369065,187.083257 187.947406,187.470265 186.708295,188.244282 C185.469184,189.018298 184.495597,190.075023 183.784768,191.4172 C183.073939,192.759378 182.719907,194.321134 182.719907,196.094236 C182.719907,196.445563 182.778322,196.752973 182.821514,197.071275 L182.849903,197.3129 L198.017948,191.916743 C197.506262,190.665142 196.765008,189.550778 195.719508,188.617566 C194.574437,187.593779 192.992358,187.083257 190.976037,187.083257 Z M65.8521109,-5.68434189e-14 C67.8412294,-5.68434189e-14 69.4547431,1.61788277 69.4547431,3.61238742 L69.4547431,131.671787 L74.9671407,131.671787 L74.9671407,3.61238742 C74.9671407,1.61788277 76.5806544,-5.68434189e-14 78.569773,-5.68434189e-14 L90.2505542,-5.68434189e-14 C92.2396727,-5.68434189e-14 93.8531864,1.61788277 93.8531864,3.61238742 L93.8531864,72.0196535 L148.167761,131.671787 L159.010044,131.671787 L106.179373,75.9078767 C104.917658,74.5737864 104.854176,72.5023661 106.036537,71.0940124 L159.658094,7.22477484 L151.32337,7.22477484 L107.208319,60.047321 C105.933378,61.5723744 103.661234,61.7792513 102.135008,60.4955541 C100.611428,59.2171615 100.4104,56.9388643 101.687986,55.4085063 L146.88224,1.29430621 C147.564677,0.474755762 148.575107,-5.68434189e-14 149.641084,-5.68434189e-14 L167.39767,-5.68434189e-14 C168.799575,-5.68434189e-14 170.071871,0.814245917 170.664374,2.08733399 C171.254232,3.36307434 171.055849,4.86425737 170.153869,5.93842543 L113.622697,73.2741757 L170.011033,132.796348 C171,133.841341 171.275393,135.379656 170.706696,136.705789 C170.137998,138.034575 168.836607,138.893909 167.39767,138.893909 L146.580698,138.893909 C145.567623,138.893909 144.60216,138.466894 143.919723,137.716303 L87.5922242,75.8548313 C86.9864953,75.1891123 86.650567,74.3191688 86.650567,73.4200504 L86.650567,7.22477484 L82.1724052,7.22477484 L82.1724052,135.281522 C82.1724052,137.276027 80.5588915,138.893909 78.569773,138.893909 L65.8521109,138.893909 C63.8629923,138.893909 62.2521237,137.276027 62.2521237,135.281522 L62.2521237,7.22477484 L57.2052645,7.22477484 L57.2052645,135.387613 C57.2052645,137.382117 55.5917508,139 53.6026322,139 C51.6135137,139 50,137.382117 50,135.387613 L50,3.61238742 C50,1.61788277 51.6135137,-5.68434189e-14 53.6026322,-5.68434189e-14 L65.8521109,-5.68434189e-14 Z" id="Combined-Shape-Copy-2" fill="#101010"></path>
    </g>
</svg>