<?xml version="1.0" encoding="UTF-8"?>
<svg width="497px" height="53px" viewBox="0 0 497 53" version="1.1" xmlns="http://www.w3.org/2000/svg" xmlns:xlink="http://www.w3.org/1999/xlink">
    <title>NeosperienceCloud</title>
    <g id="Page-1" stroke="none" stroke-width="1" fill="none" fill-rule="evenodd">
        <g id="Karavel_home_page" transform="translate(-487.000000, -3191.000000)" fill="#2289FF" fill-rule="nonzero">
            <path d="M490.308,3232 L490.308,3196.832 L513.604,3232 L516.292,3232 L516.292,3192.24 L513.604,3192.24 L513.604,3227.408 L490.308,3192.24 L487.564,3192.24 L487.564,3232 L490.308,3232 Z M536.732,3232.672 C541.94,3232.672 546.196,3230.096 548.492,3225.336 L546.252,3224.328 C544.684,3227.912 541.436,3230.32 536.9,3230.32 C531.524,3230.32 527.324,3227.016 526.82,3220.184 L549.612,3220.184 L549.612,3218.504 C549.612,3209.88 544.516,3204.448 536.956,3204.448 C528.948,3204.448 524.132,3210.496 524.132,3218.728 C524.132,3227.184 529.172,3232.672 536.732,3232.672 Z M546.924,3218 L526.764,3218 C527.044,3211 531.02,3206.8 536.9,3206.8 C542.668,3206.8 546.7,3210.608 546.924,3218 Z M567.98,3232.672 C575.988,3232.672 581.308,3226.288 581.308,3218.56 C581.308,3210.832 575.988,3204.448 567.98,3204.448 C559.972,3204.448 554.652,3210.832 554.652,3218.56 C554.652,3226.288 559.972,3232.672 567.98,3232.672 Z M567.98,3230.32 C561.484,3230.32 557.34,3225.224 557.34,3218.56 C557.34,3211.896 561.484,3206.8 567.98,3206.8 C574.476,3206.8 578.62,3211.896 578.62,3218.56 C578.62,3225.224 574.476,3230.32 567.98,3230.32 Z M595.756,3232.672 C601.636,3232.672 605.276,3229.704 605.276,3225 C605.276,3221.528 602.868,3219.008 598.612,3217.888 L594.188,3216.712 C591.5,3215.984 589.428,3214.64 589.428,3211.84 C589.428,3208.984 591.78,3206.8 595.756,3206.8 C599.284,3206.8 602.084,3208.48 602.532,3211.392 L604.772,3210.832 C604.324,3206.8 600.404,3204.448 595.7,3204.448 C590.268,3204.448 586.964,3207.752 586.964,3211.784 C586.964,3215.312 589.26,3217.776 593.684,3218.952 L598.108,3220.128 C600.516,3220.744 602.756,3222.088 602.756,3225 C602.756,3229.144 599.06,3230.32 595.756,3230.32 C591.668,3230.32 589.092,3228.416 588.588,3225.56 L586.348,3226.064 C586.852,3230.04 590.604,3232.672 595.756,3232.672 Z M614.908,3243.368 L614.908,3226.456 C616.924,3230.544 620.844,3232.672 625.492,3232.672 C633.388,3232.672 637.868,3226.512 637.868,3218.56 C637.868,3210.608 633.388,3204.448 625.492,3204.448 C620.844,3204.448 616.812,3206.632 614.852,3210.832 L614.684,3205.12 L612.556,3205.12 L612.556,3243.368 L614.908,3243.368 Z M625.324,3230.32 C618.884,3230.32 615.356,3225.336 615.356,3218.56 C615.356,3211.728 618.884,3206.8 625.324,3206.8 C631.708,3206.8 635.236,3211.728 635.236,3218.56 C635.236,3225.336 631.708,3230.32 625.324,3230.32 Z M655.508,3232.672 C660.716,3232.672 664.972,3230.096 667.268,3225.336 L665.028,3224.328 C663.46,3227.912 660.212,3230.32 655.676,3230.32 C650.3,3230.32 646.1,3227.016 645.596,3220.184 L668.388,3220.184 L668.388,3218.504 C668.388,3209.88 663.292,3204.448 655.732,3204.448 C647.724,3204.448 642.908,3210.496 642.908,3218.728 C642.908,3227.184 647.948,3232.672 655.508,3232.672 Z M665.7,3218 L645.54,3218 C645.82,3211 649.796,3206.8 655.676,3206.8 C661.444,3206.8 665.476,3210.608 665.7,3218 Z M677.964,3232 L677.964,3215.368 C677.964,3209.824 681.548,3206.072 688.212,3207.528 L688.212,3205.12 C683.62,3204.112 679.42,3205.568 677.908,3208.816 L677.796,3205.12 L675.388,3205.12 L675.388,3232 L677.964,3232 Z M695.772,3197.728 C697.34,3197.728 698.516,3196.608 698.516,3195.04 C698.516,3193.472 697.34,3192.24 695.772,3192.24 C694.204,3192.24 693.084,3193.472 693.084,3195.04 C693.084,3196.608 694.204,3197.728 695.772,3197.728 Z M697.116,3232 L697.116,3205.12 L694.54,3205.12 L694.54,3232 L697.116,3232 Z M716.996,3232.672 C722.204,3232.672 726.46,3230.096 728.756,3225.336 L726.516,3224.328 C724.948,3227.912 721.7,3230.32 717.164,3230.32 C711.788,3230.32 707.588,3227.016 707.084,3220.184 L729.876,3220.184 L729.876,3218.504 C729.876,3209.88 724.78,3204.448 717.22,3204.448 C709.212,3204.448 704.396,3210.496 704.396,3218.728 C704.396,3227.184 709.436,3232.672 716.996,3232.672 Z M727.188,3218 L707.028,3218 C707.308,3211 711.284,3206.8 717.164,3206.8 C722.932,3206.8 726.964,3210.608 727.188,3218 Z M759.5,3232 L759.5,3215.592 C759.5,3207.192 754.292,3204.448 749.196,3204.448 C744.772,3204.448 741.244,3206.408 739.62,3209.32 L739.452,3205.12 L737.156,3205.12 L737.156,3231.944 L739.732,3231.944 L739.732,3216.544 C739.732,3211.28 742.756,3206.8 748.804,3206.8 C752.892,3206.8 756.924,3208.872 756.924,3215.592 L756.924,3232 L759.5,3232 Z M779.324,3232.672 C784.476,3232.672 788.956,3230.264 791.308,3225.168 L788.9,3224.16 C787.276,3228.08 783.636,3230.32 779.324,3230.32 C773.052,3230.32 768.852,3225.616 768.852,3218.56 C768.852,3211.448 773.108,3206.744 779.324,3206.744 C783.636,3206.744 787.388,3208.984 788.9,3212.96 L791.308,3211.952 C789.348,3207.416 785.26,3204.448 779.436,3204.448 C771.372,3204.448 766.22,3210.104 766.22,3218.56 C766.22,3227.016 771.372,3232.672 779.324,3232.672 Z M809.228,3232.672 C814.436,3232.672 818.692,3230.096 820.988,3225.336 L818.748,3224.328 C817.18,3227.912 813.932,3230.32 809.396,3230.32 C804.02,3230.32 799.82,3227.016 799.316,3220.184 L822.108,3220.184 L822.108,3218.504 C822.108,3209.88 817.012,3204.448 809.452,3204.448 C801.444,3204.448 796.628,3210.496 796.628,3218.728 C796.628,3227.184 801.668,3232.672 809.228,3232.672 Z M819.42,3218 L799.26,3218 C799.54,3211 803.516,3206.8 809.396,3206.8 C815.164,3206.8 819.196,3210.608 819.42,3218 Z M861.532,3232.616 C869.316,3232.616 875.588,3228.36 877.884,3222.088 L875.42,3221.024 C873.628,3226.176 868.364,3229.984 861.588,3229.984 C852.292,3229.984 845.852,3222.872 845.852,3212.12 C845.852,3201.368 852.292,3194.256 861.644,3194.256 C868.644,3194.256 873.74,3198.176 875.588,3204.168 L878.108,3203.16 C875.98,3196.44 870.044,3191.568 861.588,3191.568 C850.724,3191.568 843.108,3199.744 843.108,3212.064 C843.108,3224.384 850.78,3232.616 861.532,3232.616 Z M887.684,3232 L887.684,3191.568 L885.108,3191.568 L885.108,3232 L887.684,3232 Z M908.292,3232.672 C916.3,3232.672 921.62,3226.288 921.62,3218.56 C921.62,3210.832 916.3,3204.448 908.292,3204.448 C900.284,3204.448 894.964,3210.832 894.964,3218.56 C894.964,3226.288 900.284,3232.672 908.292,3232.672 Z M908.292,3230.32 C901.796,3230.32 897.652,3225.224 897.652,3218.56 C897.652,3211.896 901.796,3206.8 908.292,3206.8 C914.788,3206.8 918.932,3211.896 918.932,3218.56 C918.932,3225.224 914.788,3230.32 908.292,3230.32 Z M938.364,3232.672 C942.788,3232.672 946.316,3230.544 947.772,3227.408 C947.828,3228.92 947.996,3230.544 948.22,3232 L950.796,3232 C950.572,3230.824 950.348,3228.864 950.348,3227.128 L950.348,3205.12 L947.772,3205.12 L947.772,3220.576 C947.772,3225.84 944.692,3230.32 938.756,3230.32 C934.556,3230.32 930.58,3228.024 930.58,3221.192 L930.58,3205.064 L927.948,3205.064 L927.948,3221.192 C927.948,3229.648 933.212,3232.672 938.364,3232.672 Z M970.172,3232.672 C974.764,3232.672 978.684,3230.6 980.7,3226.512 C980.756,3228.304 980.868,3229.984 981.148,3232 L983.724,3232 C983.5,3230.656 983.332,3228.36 983.276,3226.232 L983.276,3191.568 L980.756,3191.568 L980.756,3210.664 C978.74,3206.576 974.82,3204.448 970.172,3204.448 C962.276,3204.448 957.796,3210.608 957.796,3218.56 C957.796,3226.512 962.276,3232.672 970.172,3232.672 Z M970.34,3230.32 C963.956,3230.32 960.428,3225.392 960.428,3218.56 C960.428,3211.784 963.956,3206.8 970.34,3206.8 C976.78,3206.8 980.308,3211.784 980.308,3218.56 C980.308,3225.392 976.78,3230.32 970.34,3230.32 Z" id="NeosperienceCloud"></path>
        </g>
    </g>
</svg>