<?xml version="1.0" encoding="UTF-8"?>
<svg width="121px" height="139px" viewBox="0 0 121 139" version="1.1" xmlns="http://www.w3.org/2000/svg" xmlns:xlink="http://www.w3.org/1999/xlink">
    <title>karavel_icon</title>
    <g id="karavel_icon" stroke="none" stroke-width="1" fill="none" fill-rule="evenodd">
        <path d="M3.60263224,139 C1.6135137,139 0,137.382117 0,135.387613 L0,3.61238742 C0,1.61788277 1.6135137,-5.68434189e-14 3.60263224,-5.68434189e-14 L15.8521109,-5.68434189e-14 C17.8412294,-5.68434189e-14 19.4547431,1.61788277 19.4547431,3.61238742 L19.4547431,131.671787 L24.9671407,131.671787 L24.9671407,3.61238742 C24.9671407,1.61788277 26.5806544,-5.68434189e-14 28.569773,-5.68434189e-14 L40.2505542,-5.68434189e-14 C42.2396727,-5.68434189e-14 43.8531864,1.61788277 43.8531864,3.61238742 L43.8531864,72.0196535 L98.1677608,131.671787 L109.010044,131.671787 L56.1793731,75.9078767 C54.9176582,74.5737864 54.8541757,72.5023661 56.0365374,71.0940124 L109.658094,7.22477484 L101.32337,7.22477484 L57.2083187,60.047321 C55.9333783,61.5723744 53.6612336,61.7792513 52.1350084,60.4955541 C50.6114282,59.2171615 50.4104003,56.9388643 51.6879857,55.4085063 L96.8822401,1.29430621 C97.564677,0.474755762 98.5751069,-5.68434189e-14 99.641084,-5.68434189e-14 L117.39767,-5.68434189e-14 C118.799575,-5.68434189e-14 120.071871,0.814245917 120.664374,2.08733399 C121.254232,3.36307434 121.055849,4.86425737 120.153869,5.93842543 L63.6226969,73.2741757 L120.011033,132.796348 C121,133.841341 121.275393,135.379656 120.706696,136.705789 C120.137998,138.034575 118.836607,138.893909 117.39767,138.893909 L96.5806982,138.893909 C95.5676232,138.893909 94.60216,138.466894 93.9197231,137.716303 L37.5922242,75.8548313 C36.9864953,75.1891123 36.650567,74.3191688 36.650567,73.4200504 L36.650567,7.22477484 L32.1724052,7.22477484 L32.1724052,135.281522 C32.1724052,137.276027 30.5588915,138.893909 28.569773,138.893909 L15.8521109,138.893909 C13.8629923,138.893909 12.2521237,137.276027 12.2521237,135.281522 L12.2521237,7.22477484 L7.20526448,7.22477484 L7.20526448,135.387613 C7.20526448,137.382117 5.59175077,139 3.60263224,139" id="Combined-Shape-Copy-2" fill="#101010"></path>
    </g>
</svg>